<?xml version="1.0" encoding="UTF-8" standalone="no"?>
<svg
   xmlns:dc="http://purl.org/dc/elements/1.1/"
   xmlns:cc="http://creativecommons.org/ns#"
   xmlns:rdf="http://www.w3.org/1999/02/22-rdf-syntax-ns#"
   xmlns:svg="http://www.w3.org/2000/svg"
   xmlns="http://www.w3.org/2000/svg"
   viewBox="0 0 326.94666 254.92"
   height="254.92"
   width="326.94666"
   xml:space="preserve"
   id="svg2"
   version="1.1"><metadata
     id="metadata8"><rdf:RDF><cc:Work
         rdf:about=""><dc:format>image/svg+xml</dc:format><dc:type
           rdf:resource="http://purl.org/dc/dcmitype/StillImage" /></cc:Work></rdf:RDF></metadata><defs
     id="defs6"><clipPath
       id="clipPath28"
       clipPathUnits="userSpaceOnUse"><path
         id="path26"
         d="m 86.1992,960.676 c 1.5469,2.613 1.9844,5.164 1.9844,7.117 l -0.0508,0.359 -1.9336,-7.476 M 2013.42,1025.66 c -55.4,61.84 -173.26,187.88 -442.65,438.09 -409.06,379.93 -484.06,421.28 -495.18,425.77 -10.85,-4.28 -85.199,-44.69 -488.453,-425.01 C 382.363,1271.37 236.27,1128.68 152.898,1040.4 116.609,1001.97 91.4453,972.227 88.7031,968.938 96.2695,955.098 154.102,872.969 592.258,466.941 780.012,292.98 918.574,169.559 1004.09,100.109 c 12.22,-9.8981 68.62,-53.3981 68.66,-53.3981 l 2.12,0.1172 c 6.01,1.4024 70.95,25.25 496.52,426.0309 262.45,247.172 380.34,372.602 437.54,435.7 l 4.49,117.101 m -938.41,864.09 -0.7,0.24 1.37,-0.17 1.14,0.13 -0.59,-0.2 c 2.83,0 -3.57,-0.03 -1.22,0" /></clipPath></defs><g
     transform="matrix(1.3333333,0,0,-1.3333333,0,254.92)"
     id="g10"><g
       transform="scale(0.1)"
       id="g12"><path
         id="path14"
         style="fill:#000000;fill-opacity:1;fill-rule:nonzero;stroke:none"
         d="m 1937.85,898.359 94.5,171.861 c -71.62,74.63 -191.19,192.05 -390.78,376.82 -466.47,431.82 -493.53,429.75 -505.12,429.75 -11.59,0 -33.84,8.41 -498.403,-429.06 C 117.137,957.215 134.57,940.715 134.57,940.715 c 0,0 -15.898,-26.582 508.7,-511.817 C 1114.52,-7.03906 1123.36,5.17188 1136.45,5.17188 c 13.07,0 40.9,-7.3711 505.81,429.69912 251.29,236.289 375.57,362.309 436.92,429.469 l -141.33,34.019" /><path
         id="path16"
         style="fill:#1a171c;fill-opacity:1;fill-rule:nonzero;stroke:none"
         d="m 1937.85,898.359 4.5,-2.48 96.32,175.171 -2.61,2.73 c -71.73,74.75 -191.36,192.22 -391,377.03 -231.07,213.9 -354.35,321.37 -421.5,375.5 -33.59,27.07 -53.12,40.79 -65.31,47.91 -6.1,3.56 -10.4,5.49 -13.82,6.55 -3.38,1.07 -6.07,1.17 -7.65,1.16 l -0.33,-0.01 -1.36,0.01 c -1.86,0.02 -4.67,-0.2 -8.22,-1.42 -12.42,-4.29 -37,-19.29 -108.22,-79.39 -71.111,-60.1 -188.365,-165.31 -384.123,-349.65 -244.16,-229.91 -370.093,-355.72 -435.078,-424.61 -32.496,-34.454 -49.75,-54.661 -58.996,-66.649 -4.625,-6.004 -7.25,-9.941 -8.812,-12.707 -1.524,-2.816 -2.188,-4.266 -2.278,-6.484 -0.039,-1.153 0.446,-2.907 1.672,-4.032 l 3.535,3.727 -4.406,2.637 c -0.578,-0.965 -0.785,-2.043 -0.781,-2.981 0.047,-1.953 0.617,-3.699 2.133,-6.746 5.371,-10.414 24.062,-37.004 95.714,-111.613 71.629,-74.524 196.114,-196.684 412.555,-396.883 223.16,-206.438 342.645,-312.41 408.125,-366.8673 32.75,-27.2422 51.97,-41.5898 64.12,-49.31248 6.09,-3.84766 10.42,-6.05859 13.93,-7.35938 3.48,-1.30859 6.33,-1.62109 8.37,-1.58984 0.9,0 1.59,0.03125 2.12,0.03125 l 1.34,-0.0117187 c 1.98,-0.0078125 4.94,0.1718747 8.74,1.3515587 13.31,4.16797 39.14,19.05081 111.58,79.17971 72.34,60.1402 190.85,165.5582 387.66,350.5782 251.36,236.34 375.69,362.402 437.2,429.742 l 5.87,6.418 -149.79,36.063 -1.2,-4.993 4.5,-2.48 -4.5,2.48 -1.2,-4.988 141.33,-34.031 1.2,5 -3.79,3.461 C 2014.21,800.82 1889.98,674.852 1638.74,438.609 1413.92,227.25 1291.35,119.871 1223.41,65.4688 c -33.96,-27.1993 -54.28,-41.1485 -66.66,-48.1602 -6.19,-3.5 -10.37,-5.2578 -13.21,-6.1172 -2.86,-0.8516 -4.24,-0.8828 -5.75,-0.9023 l -1.34,0.0117 -2.12,-0.0313 c -1.27,0.0196 -2.29,0.0508 -4.81,0.961 -4.37,1.5781 -12.66,6.1601 -28.37,17.789 C 1053.88,63.9492 939.547,161.809 646.758,432.672 399.504,661.371 272.375,788.141 207.172,858.129 c -32.598,34.98 -49.719,55.793 -58.567,67.922 -4.425,6.054 -6.777,9.945 -7.937,12.234 -0.582,1.141 -0.863,1.879 -0.977,2.231 l -0.062,0.234 -2.082,-0.379 h 2.105 l -0.023,0.379 -2.082,-0.379 h 2.105 -4.511 l 3.836,-2.297 c 0.578,0.965 0.683,1.867 0.679,2.297 h -4.515 l 3.836,-2.297 2.113,3.531 -2.985,2.833 -3.242,-3.418 h 4.774 c 0.043,0.671 -0.301,2.293 -1.532,3.418 l -3.242,-3.418 h 4.774 -2.918 l 2.859,-0.618 0.059,0.618 h -2.918 l 2.859,-0.618 -0.531,0.114 0.523,-0.157 0.008,0.043 -0.531,0.114 0.523,-0.157 c 0.02,0.399 2.442,5.637 13.227,18.899 32.387,40.16 139.664,156.012 488.769,484.742 223.637,210.59 344.739,317.81 411.334,372.27 33.28,27.22 52.97,41.25 64.81,48.32 5.91,3.54 9.84,5.32 12.43,6.18 2.62,0.86 3.69,0.87 4.95,0.89 l 1.36,-0.01 h 0.33 c 1.38,-0.02 2.23,0.02 4.61,-0.69 4.1,-1.25 12.24,-5.18 28.14,-16.31 47.82,-33.4 165.42,-130.76 468.55,-411.38 199.55,-184.72 319.06,-302.09 390.57,-376.61 l 3.7,3.56 -4.5,2.48 -97.74,-177.759 6.54,-1.57 1.2,4.988" /><path
         id="path18"
         style="fill:#ffe500;fill-opacity:1;fill-rule:nonzero;stroke:none"
         d="m 1937.85,898.359 81.46,148.131 c -61.12,67.79 -185.61,193.84 -438.64,427.92 -462.97,428.32 -488.05,429.74 -505.11,429.74 -17.07,0 -32.9,9.35 -498.412,-429.04 C 56.2695,984.539 73.6719,968.074 73.6719,968.074 c 0,0 -16.0039,-26.726 508.6911,-511.812 C 1050.25,23.7188 1061.46,32.5313 1075.56,32.5313 c 14.08,0 41.2,-7.0704 505.79,429.7307 238.92,224.617 363.01,349.547 427.37,419.039 l -70.87,17.058" /><path
         id="path20"
         style="fill:#1a171b;fill-opacity:1;fill-rule:nonzero;stroke:none"
         d="m 1937.85,898.359 6.75,-3.711 81.46,148.132 -1.03,8.87 c -61.41,68.11 -186,194.25 -439.12,428.42 -231.55,214.21 -353.6,321.69 -420.15,375.81 -33.31,27.07 -52.68,40.81 -65.37,48.05 -6.36,3.62 -11.12,5.64 -15.2,6.76 -4.05,1.13 -7.46,1.18 -9.63,1.17 l -2.12,0.01 c -2.46,0.02 -6.02,-0.21 -10.18,-1.54 -7.36,-2.32 -16.9,-7.41 -33.6,-19.33 C 979.734,1855.27 864.988,1756.74 571.867,1480.71 327.676,1250.73 201.723,1124.9 136.676,1055.95 c -32.528,-34.49 -49.8205,-54.73 -59.1565,-66.825 -4.6679,-6.062 -7.3515,-10.07 -9.0117,-13 -1.5976,-3.008 -2.4765,-4.641 -2.6094,-7.742 -0.0625,-1.61 0.6289,-4.203 2.4727,-5.899 l 5.3008,5.59 -6.6094,3.961 c -0.8672,-1.445 -1.1562,-3.019 -1.1484,-4.305 0.0703,-2.667 0.8125,-4.679 2.414,-7.933 2.8672,-5.606 8.9532,-14.859 23.3242,-32.262 C 134.723,875.469 252.48,750.762 577.133,450.602 801.973,242.75 921.383,136.781 986.539,82.6094 1019.14,55.5117 1038.13,41.3711 1050.32,33.75 c 6.1,-3.8086 10.55,-6.0312 14.34,-7.3516 3.74,-1.3398 7.08,-1.6171 9.23,-1.5898 l 1.67,0.0234 1.37,-0.0117 c 2.17,-0.0195 5.58,0.1797 9.68,1.4297 7.25,2.1914 17.14,7.1211 34.41,18.9102 51.64,35.3906 170.13,133.7108 465.6,411.4808 239,224.687 363.17,349.699 427.75,419.418 l -3.85,12.73 -70.87,17.063 -1.8,-7.493 6.75,-3.711 -6.75,3.711 -1.8,-7.488 70.87,-17.062 1.8,7.492 -5.65,5.23 c -64.15,-69.25 -188.15,-194.109 -427,-418.66 -224.93,-211.48 -347.26,-318.84 -414.95,-373.1327 -33.81,-27.1367 -54.01,-41.0078 -66.18,-47.8594 -6.08,-3.4297 -10.11,-5.0898 -12.73,-5.8594 -2.67,-0.7695 -3.74,-0.7695 -5.28,-0.789 h -1.37 l -1.67,-0.0117 c -1.36,0.0312 -1.96,0.0117 -4.18,0.7421 -3.81,1.2774 -11.79,5.5 -27.2,16.8672 C 996.074,91.9492 882.523,189.262 587.594,461.922 340.41,690.441 213.316,817.16 148.18,887.102 c -32.559,34.957 -49.637,55.738 -58.387,67.75 -4.3711,5.996 -6.6602,9.808 -7.7266,11.921 -0.5391,1.055 -0.7656,1.676 -0.8203,1.86 l -0.0156,0.047 -3.7657,-0.95 h 3.8594 l -0.0937,0.95 -3.7657,-0.95 H 81.3242 74.25 l 6.0313,-3.613 c 0.8671,1.446 1.0468,2.844 1.0429,3.613 H 74.25 l 6.0313,-3.613 -1.3086,9.551 -5.0118,-5.285 h 7.3477 c 0.0625,1.125 -0.4883,3.59 -2.3359,5.285 l -5.0118,-5.285 h 7.3477 -5.4961 l 5.3789,-1.168 0.1172,1.168 h -5.4961 l 5.3789,-1.168 -1.9609,0.426 1.8945,-0.692 0.0664,0.266 -1.9609,0.426 1.8945,-0.692 c 0.0703,0.469 3.0234,6.235 14.3516,19.992 34.0744,41.699 143.4064,159.019 486.9534,482.559 223.175,210.18 342.961,317.39 408.828,371.87 32.902,27.24 52.382,41.28 64.182,48.26 5.88,3.49 9.8,5.19 12.39,5.99 2.63,0.79 3.82,0.82 5.61,0.84 l 2.12,-0.01 c 2.09,-0.02 3.2,-0.01 5.59,-0.63 4.11,-1.08 12.17,-4.76 27.89,-15.77 47.33,-33.02 162.7,-130.3 466.4,-411.29 252.94,-233.99 377.32,-359.96 438.14,-427.43 l 5.73,5.16 -6.75,3.71 -81.46,-148.13 4.95,-11.199 1.8,7.488" /><g
         id="g22"><g
           clip-path="url(#clipPath28)"
           id="g24"><path
             id="path30"
             style="fill:#ffe500;fill-opacity:1;fill-rule:nonzero;stroke:none"
             d="m 906.758,221.73 -50.156,60.25 -51.883,58.461 -34.739,36.028 c -184.542,184.652 -561.335,562.808 -565.085,566.48 -1.133,1.067 -1.665,2.063 -1.665,3.047 v 0.051 c 0.059,1.289 0.825,2.242 1.489,2.832 16.043,15.437 383.828,369.531 584.363,539.711 l 308.508,249.4 -8.73,190.27 -469.895,-418.87 C 446.77,1358.06 118.73,998.641 115.637,995.516 c -8.11,-7.371 -12.883,-18.231 -12.883,-29.578 0,-11.504 4.785,-22.227 13.508,-30.223 l 1.836,-1.75 c 56.597,-53.836 346.265,-329.586 492.683,-471.004 49.922,-48.242 67.949,-62.813 86.153,-77.621 l 80.39,-65.559 129.434,-98.051" /><path
             id="path32"
             style="fill:#ffe500;fill-opacity:1;fill-rule:nonzero;stroke:none"
             d="m 855.461,281.059 0.723,-0.348 c -1.301,0.961 -7.434,7.871 -52.571,58.75 l -34.695,36.019 -486.184,487.329 -78.886,79.117 -2.078,4.07 1.96,3.953 c 39.422,37.973 390,374.781 584.395,539.751 0,0 302.355,244.19 307.985,248.98 0,1.29 -8.74,180.11 -8.74,186.32 -4.9,-4.31 -467.421,-416.7 -467.421,-416.7 C 447.598,1356.84 119.813,997.629 116.672,994.504 c -7.934,-7.238 -12.442,-17.629 -12.442,-28.566 0,-11.086 4.649,-21.426 13.043,-29.172 l -0.046,0.031 1.882,-1.77 C 175.715,881.16 465.43,605.398 611.816,463.988 c 48.887,-47.218 67.247,-62.179 84.993,-76.636 l 81.445,-66.461 c 0.016,0 88.75,-67.211 119.18,-90.243 -11.504,13.793 -41.973,50.411 -41.973,50.411" /><path
             id="path34"
             style="fill:#ffe600;fill-opacity:1;fill-rule:nonzero;stroke:none"
             d="m 854.309,280.129 0.996,-0.59 c -1.41,1.063 -5.813,5.981 -52.817,58.973 l -34.636,35.949 -486.172,487.328 -78.875,79.09 -2.367,4.453 v 0.09 c 0,0.918 1.964,5.183 1.964,5.183 39.485,38.145 388.914,374.035 584.754,540.205 0,0 301.844,243.77 307.484,248.54 0,1.29 -8.75,176.17 -8.75,182.38 -4.88,-4.31 -464.96,-414.52 -464.96,-414.52 C 448.848,1355.97 120.891,996.602 117.742,993.469 c -7.676,-6.985 -12.019,-16.996 -12.019,-27.531 0,-10.665 4.441,-20.633 12.547,-28.086 l 1.859,-1.75 c 103.16,-98.161 357.613,-340.524 492.715,-471.071 48.867,-47.211 67.195,-62.133 84.898,-76.543 l 81.438,-66.449 c 0.168,-0.16 94.289,-71.41 108.894,-82.48 -10.601,12.773 -33.765,40.57 -33.765,40.57" /><path
             id="path36"
             style="fill:#ffe600;fill-opacity:1;fill-rule:nonzero;stroke:none"
             d="m 853.164,279.211 1.25,-0.82 c -1.57,1.148 -5.437,5.531 -53.027,59.14 l -34.61,35.918 -486.14,487.301 -78.899,79.113 -2.629,4.805 v 0.105 c 0,1.067 1.954,6.45 1.954,6.45 4.035,4.05 377.699,364.677 585.109,540.677 0,0 301.338,243.34 306.968,248.12 0,1.31 -8.75,172.25 -8.75,178.44 -4.86,-4.3 -462.456,-412.33 -462.456,-412.33 -168.329,-147.95 -489.856,-500.42 -502.957,-513.485 -7.582,-6.942 -11.77,-16.571 -11.77,-26.707 0,-10.247 4.297,-19.844 12.07,-27.032 l 1.868,-1.726 c 103.066,-98.102 357.402,-340.328 492.742,-471.098 48.781,-47.133 67.07,-62.031 84.765,-76.441 l 81.465,-66.469 c 0,0 82.696,-62.613 98.606,-74.66 -9.387,11.277 -25.559,30.699 -25.559,30.699" /><path
             id="path38"
             style="fill:#ffe600;fill-opacity:1;fill-rule:nonzero;stroke:none"
             d="m 852.02,278.289 1.515,-1.07 c -1.672,1.23 -4.426,4.312 -50.332,56.011 l -2.949,3.321 -34.539,35.898 -486.137,487.289 -78.887,79.102 -2.878,5.144 -0.02,0.137 c 0,1.211 1.863,7.59 1.863,7.59 3.266,3.453 379.465,366.429 585.547,541.309 0,0 300.837,242.9 306.467,247.68 0,1.29 -8.73,168.32 -8.73,174.5 -4.89,-4.3 -460.03,-410.16 -460.03,-410.16 -169.472,-148.95 -489.824,-500.4 -502.871,-513.431 -7.246,-6.621 -11.379,-15.964 -11.379,-25.671 0,-9.844 4.133,-19.051 11.645,-25.958 l 1.843,-1.75 C 225.098,840.281 479.18,598.27 614.934,467.141 663.691,420.012 681.953,405.148 699.57,390.75 l 81.493,-66.461 c 0,0 63.175,-47.84 88.332,-66.898 -7.559,9.097 -17.375,20.898 -17.375,20.898" /><path
             id="path40"
             style="fill:#ffe707;fill-opacity:1;fill-rule:nonzero;stroke:none"
             d="m 850.879,277.352 -0.188,0.488 c -3.328,3.461 -12.886,14.238 -48.582,54.449 l -2.949,3.313 -34.543,35.847 -486.094,487.25 -78.894,79.114 -3.137,5.457 -0.015,0.175 c 0,1.418 1.753,8.664 1.753,8.664 2.485,2.871 377.754,365.291 586.016,542.011 0,0 300.314,242.48 305.954,247.26 0,1.29 -8.75,164.38 -8.75,170.55 -4.89,-4.29 -457.555,-407.98 -457.555,-407.98 -169.61,-149.07 -489.754,-500.36 -502.809,-513.364 -6.965,-6.375 -10.941,-15.344 -10.941,-24.648 0,-9.422 3.957,-18.262 11.156,-24.883 l 1.863,-1.758 c 102.551,-97.578 355.84,-338.817 492.82,-471.106 48.645,-47.05 66.887,-61.91 84.524,-76.269 l 81.484,-66.481 c 0.188,-0.14 65.391,-49.531 78.086,-59.121 -4.598,5.508 -9.199,11.032 -9.199,11.032" /><path
             id="path42"
             style="fill:#ffe71c;fill-opacity:1;fill-rule:nonzero;stroke:none"
             d="m 849.734,276.422 -0.117,0.406 -51.582,57.813 -34.472,35.8 -486.083,487.239 -78.886,79.086 -3.367,5.793 -0.024,0.222 c 0,1.653 1.606,9.668 1.606,9.668 1.785,2.309 373.984,362.481 586.453,542.781 0,0 299.828,242.04 305.458,246.82 0,1.3 -8.76,160.46 -8.76,166.63 -4.87,-4.3 -455.058,-405.82 -455.058,-405.82 C 460.195,1358.11 155.09,1022.42 122.168,989.578 c -6.73,-6.148 -10.535,-14.742 -10.535,-23.64 0,-9.004 3.797,-17.469 10.691,-23.821 l 1.864,-1.765 C 226.316,843.18 478.777,602.738 617.02,469.23 c 48.632,-47.031 66.828,-61.839 84.406,-76.191 l 81.472,-66.449 c 0,0 54.055,-40.942 67.817,-51.352 l -0.981,1.184" /><path
             id="path44"
             style="fill:#ffe829;fill-opacity:1;fill-rule:nonzero;stroke:none"
             d="m 796.934,333.66 -34.454,35.762 -486.054,487.226 -78.875,79.106 -3.625,6.082 -0.02,0.273 c 0,1.844 1.426,10.633 1.426,10.633 1.309,1.914 375.332,363.998 586.973,543.598 0,0 299.285,241.61 304.925,246.37 0,1.31 -8.75,156.55 -8.75,162.69 -4.87,-4.3 -452.589,-403.62 -452.589,-403.62 -164.68,-144.74 -469.731,-480.4 -502.649,-513.225 -6.457,-5.91 -10.129,-14.121 -10.129,-22.617 0,-8.614 3.645,-16.692 10.215,-22.754 l 1.887,-1.789 C 227.141,844.43 479.18,604.422 618.059,470.281 c 48.55,-46.972 66.714,-61.769 84.296,-76.07 -0.082,0.059 -0.082,0.059 81.493,-66.512 0.019,0 37.539,-28.39 56.718,-42.918 -11.347,12.731 -43.632,48.879 -43.632,48.879" /><path
             id="path46"
             style="fill:#ffe833;fill-opacity:1;fill-rule:nonzero;stroke:none"
             d="m 795.852,332.691 -34.446,35.739 -486.035,487.191 -78.894,79.113 -3.84,6.36 -0.008,0.34 c 0,2.14 1.266,11.527 1.266,11.527 0.918,1.648 370.492,360.399 587.445,544.489 0,0 298.79,241.18 304.4,245.96 0,1.28 -8.74,152.59 -8.74,158.74 -4.88,-4.31 -450.125,-401.47 -450.125,-401.47 C 463.008,1356.67 157.273,1020.42 124.27,987.539 c -6.172,-5.676 -9.68,-13.523 -9.68,-21.601 0,-8.184 3.457,-15.887 9.746,-21.692 l 1.902,-1.785 c 101.477,-96.539 352.61,-335.672 492.871,-471.141 48.52,-46.941 66.645,-61.699 84.192,-76 l -1.613,0.059 c 1.691,-0.098 9.867,-6.797 75.031,-59.957 l 8.047,-6.543 c 0.214,-0.18 36.64,-27.758 44.629,-33.828 -11.895,13.359 -33.528,37.597 -33.543,37.64" /><path
             id="path48"
             style="fill:#ffe93c;fill-opacity:1;fill-rule:nonzero;stroke:none"
             d="m 794.602,331.871 0.156,-0.18 -34.399,35.719 -486.023,487.18 -78.887,79.101 -4.082,6.661 -0.039,0.449 c 0,2.461 1.082,12.363 1.082,12.363 0.695,1.414 370.637,360.976 587.949,545.386 0,0 298.281,240.75 303.901,245.52 0,1.3 -8.73,148.69 -8.73,154.81 -4.9,-4.31 -447.659,-399.28 -447.659,-399.28 -163.84,-143.99 -469.543,-480.21 -502.527,-513.096 -5.91,-5.41 -9.281,-12.902 -9.281,-20.566 0,-7.774 3.312,-15.098 9.289,-20.618 l 1.906,-1.804 C 228.938,846.781 480.48,607.238 620.156,472.391 668.586,425.5 686.672,410.77 704.188,396.488 l 0.175,-0.328 -0.125,-0.449 c 4.551,-2.992 18.516,-14.371 73.075,-58.859 l 8.363,-6.821 c 0,0 19.722,-14.922 32.554,-24.672 -3.953,4.43 -23.628,26.512 -23.628,26.512" /><path
             id="path50"
             style="fill:#ffe944;fill-opacity:1;fill-rule:nonzero;stroke:none"
             d="m 793.508,330.91 0.164,-0.238 -34.402,35.726 -485.989,487.161 -78.906,79.105 -4.277,6.926 -0.254,1.113 1.101,12.625 c 0.532,1.262 365.942,357.512 588.442,546.352 0,0 297.773,240.29 303.403,245.07 0,1.29 -8.75,144.74 -8.75,150.86 -4.89,-4.29 -445.185,-397.1 -445.185,-397.1 -163.789,-143.94 -469.492,-480.14 -502.468,-513.033 -5.625,-5.172 -8.836,-12.274 -8.836,-19.539 0,-7.375 3.133,-14.305 8.816,-19.543 l 1.914,-1.817 C 229.91,847.879 481.387,608.41 621.184,473.43 c 48.386,-46.84 66.453,-61.559 83.953,-75.801 4.59,-3.75 81.484,-66.488 81.484,-66.488 0.012,0 11.199,-8.469 20.481,-15.493 -6.641,7.454 -13.594,15.262 -13.594,15.262" /><path
             id="path52"
             style="fill:#ffea4b;fill-opacity:1;fill-rule:nonzero;stroke:none"
             d="m 792.371,329.93 0.258,-0.25 -34.426,35.742 -485.976,487.117 -78.899,79.102 -4.488,7.187 -0.488,1.836 1.113,12.781 c 1.875,4.77 377.449,367.845 588.965,547.335 0,0 297.23,239.86 302.87,244.64 0,1.28 -8.74,140.83 -8.74,146.92 -4.86,-4.29 -442.705,-394.92 -442.705,-394.92 -163.75,-143.9 -469.425,-480.1 -502.433,-512.979 -5.332,-4.921 -8.391,-11.648 -8.391,-18.503 0,-6.954 2.949,-13.504 8.332,-18.489 l 1.953,-1.812 C 230.879,849 482.219,609.66 622.219,474.461 670.508,427.719 688.547,413.039 705.996,398.82 L 787.5,332.309 c 0.145,-0.071 1.848,-1.399 8.457,-6.399 -1.406,1.559 -3.586,4.02 -3.586,4.02" /><path
             id="path54"
             style="fill:#ffea52;fill-opacity:1;fill-rule:nonzero;stroke:none"
             d="M 757.117,364.398 271.152,851.5 l -78.867,79.105 -4.707,7.454 -0.683,2.605 1.074,12.91 c 1.844,4.715 377.344,368.306 589.472,548.316 0,0 296.779,239.44 302.379,244.21 0,1.28 -8.75,136.91 -8.75,142.98 -4.88,-4.31 -440.218,-392.75 -440.218,-392.75 C 467.129,1352.47 161.477,1016.3 128.484,983.418 c -5.086,-4.68 -7.976,-11.047 -7.976,-17.48 0,-6.543 2.812,-12.723 7.883,-17.403 l 1.914,-1.836 C 231.785,850.172 482.93,611.012 623.27,475.52 c 48.156,-46.641 66.195,-61.329 83.617,-75.532 0.086,-0.058 63.316,-51.66 74.48,-60.758 -10.09,10.489 -24.25,25.168 -24.25,25.168" /><path
             id="path56"
             style="fill:#ffeb58;fill-opacity:1;fill-rule:nonzero;stroke:none"
             d="m 756.055,363.371 -485.926,487.109 -78.899,79.098 -4.921,7.719 -0.86,3.035 c 0,0.906 1.074,13.359 1.074,13.359 1.719,4.688 377.2,368.739 589.961,549.299 0,0 296.226,239.01 301.856,243.79 0,1.28 -8.72,132.97 -8.72,139.04 -4.9,-4.3 -437.796,-390.58 -437.796,-390.58 -162.871,-143.1 -469.195,-479.88 -502.293,-512.849 -4.797,-4.43 -7.551,-10.411 -7.551,-16.453 0,-6.141 2.661,-11.934 7.422,-16.348 l 1.946,-1.848 C 232.48,851.539 482.93,613.059 624.297,476.57 c 48.098,-46.558 66.074,-61.25 83.469,-75.41 0,0 51.98,-42.422 55.554,-45.308 -3.047,3.16 -7.265,7.5 -7.265,7.519" /><path
             id="path58"
             style="fill:#ffeb5e;fill-opacity:1;fill-rule:nonzero;stroke:none"
             d="m 269.07,849.461 -78.894,79.102 -5.125,7.941 -0.703,2.297 -0.383,1.531 1.074,13.477 c 1.66,4.66 377.141,369.261 590.488,550.291 0,0 295.703,238.58 301.353,243.35 0,1.28 -8.75,129.07 -8.75,135.11 -4.88,-4.31 -435.298,-388.39 -435.298,-388.39 C 470.051,1351.13 163.66,1014.32 130.598,981.367 c -4.535,-4.187 -7.121,-9.797 -7.121,-15.429 0,-5.715 2.461,-11.141 6.906,-15.286 l 1.98,-1.843 c 100.989,-96.079 351.172,-334.27 492.981,-471.2 48.152,-46.621 66.043,-61.211 83.367,-75.328 0,0 18.934,-15.429 34.719,-28.332 -41.758,41.879 -200.5,201 -474.36,475.512" /><path
             id="path60"
             style="fill:#ffec64;fill-opacity:1;fill-rule:nonzero;stroke:none"
             d="m 189.121,927.52 -5.312,8.21 -0.879,2.668 -0.41,1.622 1.015,13.894 c 1.629,4.649 377.195,369.846 590.996,551.286 0,0 295.219,238.16 300.859,242.93 0,1.26 -8.75,125.13 -8.75,131.17 -4.87,-4.3 -432.831,-386.23 -432.831,-386.23 -162.754,-143.02 -469.114,-479.78 -502.168,-512.738 -4.278,-3.937 -6.68,-9.172 -6.68,-14.394 0,-5.301 2.273,-10.352 6.465,-14.211 l 1.965,-1.864 C 234.688,853.488 485.488,614.68 626.395,478.68 c 48.222,-46.739 66.039,-61.25 83.261,-75.27 0,0 5.696,-4.648 12.434,-10.16 -35.86,35.941 -532.969,534.27 -532.969,534.27" /><path
             id="path62"
             style="fill:#ffec64;fill-opacity:1;fill-rule:nonzero;stroke:none"
             d="m 188.066,926.504 -0.105,0.129 -5.402,8.308 -1.067,3.028 c -0.262,1.094 -0.469,2.051 -0.469,2.051 l 1.028,14.011 c 1.601,4.629 377.226,370.439 591.523,552.289 0,0 294.706,237.7 300.346,242.48 0,1.27 -8.75,121.22 -8.75,127.22 -4.9,-4.28 -430.373,-384.04 -430.373,-384.04 -161.938,-142.3 -468.969,-479.66 -502.109,-512.664 -3.977,-3.703 -6.243,-8.554 -6.243,-13.378 0,-4.891 2.129,-9.571 5.965,-13.145 l 1.992,-1.863 C 235.77,854.5 486.699,615.559 627.434,479.719 666.426,441.941 685.438,425.32 700.422,412.898 662.336,451.102 188.066,926.504 188.066,926.504" /><path
             id="path64"
             style="fill:#ffec6a;fill-opacity:1;fill-rule:nonzero;stroke:none"
             d="m 187.031,925.477 -0.312,0.371 -5.41,8.312 -1.219,3.352 -0.5,2.261 1.008,14.36 c 1.504,4.629 377.222,371.037 592.019,553.297 0,0 294.193,237.27 299.813,242.04 0,1.28 -8.74,117.32 -8.74,123.29 -4.89,-4.3 -427.897,-381.86 -427.897,-381.86 -161.906,-142.27 -468.906,-479.6 -502.055,-512.63 -3.699,-3.426 -5.828,-7.911 -5.828,-12.332 0,-4.493 1.961,-8.782 5.528,-12.059 l 1.992,-1.899 c 78.547,-74.71 346.242,-329.531 493.039,-471.23 16.344,-15.84 29.058,-27.809 39.469,-37.379 -55.348,55.488 -480.907,482.106 -480.907,482.106" /><path
             id="path66"
             style="fill:#ffec6a;fill-opacity:1;fill-rule:nonzero;stroke:none"
             d="m 185.977,924.441 -0.508,0.618 -5.403,8.308 -1.382,3.664 -0.579,2.742 1.004,14.465 c 1.477,4.602 377.278,371.632 592.524,554.302 0,0 293.687,236.84 299.307,241.62 0,1.25 -8.73,113.38 -8.73,119.33 C 1057.33,1865.2 636.785,1489.8 636.785,1489.8 474.902,1347.58 167.938,1010.27 134.797,977.246 c -3.43,-3.183 -5.395,-7.297 -5.395,-11.308 0,-4.083 1.797,-7.989 5.039,-11.004 l 2.012,-1.887 C 206.719,886.211 428.074,675.48 579.148,530.281 461.887,647.84 185.977,924.441 185.977,924.441" /><path
             id="path68"
             style="fill:#ffed75;fill-opacity:1;fill-rule:nonzero;stroke:none"
             d="m 184.922,923.418 -0.703,0.859 -5.391,8.313 -1.523,3.914 -0.645,3 0.969,14.82 c 1.414,4.602 377.305,372.246 593.035,555.326 0,0 293.176,236.4 298.806,241.18 0,1.25 -8.75,109.47 -8.75,115.4 -4.86,-4.3 -422.954,-377.52 -422.954,-377.52 -161.821,-142.19 -468.774,-479.46 -501.907,-512.48 -3.203,-2.96 -4.98,-6.679 -4.98,-10.292 0,-3.665 1.621,-7.208 4.57,-9.93 0.02,-0.024 228.074,-217.778 357.141,-341.02 -104.758,105 -307.668,308.43 -307.668,308.43" /><path
             id="path70"
             style="fill:#ffee7b;fill-opacity:1;fill-rule:nonzero;stroke:none"
             d="m 183.867,922.391 -0.887,1.105 -5.39,8.281 -1.652,4.2 -0.762,3.527 0.969,14.93 c 1.375,4.57 377.351,372.856 593.574,556.316 0,0 292.641,235.98 298.271,240.75 0,1.25 -8.74,105.59 -8.74,111.47 -4.88,-4.29 -420.48,-375.34 -420.48,-375.34 C 476.98,1345.48 170.039,1008.2 136.895,975.195 c -2.891,-2.695 -4.532,-6.054 -4.532,-9.257 0,-3.262 1.438,-6.418 4.114,-8.868 0.007,-0.019 179.441,-171.359 269.597,-257.429 -89.148,89.347 -222.207,222.75 -222.207,222.75" /><path
             id="path72"
             style="fill:#ffee80;fill-opacity:1;fill-rule:nonzero;stroke:none"
             d="m 182.82,921.355 -1.14,1.426 -5.34,8.215 -1.789,4.453 -0.821,3.778 0.95,15.293 c 1.336,4.582 377.476,373.55 594.043,557.34 0,0 292.157,235.53 297.767,240.32 0,1.25 -8.74,101.68 -8.74,107.53 -4.87,-4.3 -418.016,-373.18 -418.016,-373.18 -160.925,-141.39 -468.55,-479.27 -501.796,-512.358 -2.594,-2.453 -4.122,-5.442 -4.122,-8.234 0,-2.84 1.313,-5.618 3.657,-7.793 0.015,-0.032 117.73,-112.415 182.136,-173.895 -64.746,64.879 -136.757,137.105 -136.789,137.105" /><path
             id="path74"
             style="fill:#ffef85;fill-opacity:1;fill-rule:nonzero;stroke:none"
             d="m 181.777,920.313 -1.257,1.562 0.457,-0.215 c -0.86,0.801 -2.332,3.047 -5.887,8.555 l -1.926,4.707 -0.918,4.316 0.938,15.371 c 1.32,4.602 377.629,374.261 594.582,558.361 0,0 291.634,235.1 297.254,239.88 0,1.23 -8.73,97.78 -8.73,103.6 -4.89,-4.3 -415.56,-370.99 -415.56,-370.99 -160.835,-141.33 -468.503,-479.22 -501.714,-512.315 -2.395,-2.207 -3.703,-4.825 -3.703,-7.207 0,-2.442 1.14,-4.836 3.171,-6.727 0.012,-0.023 67.524,-64.473 94.563,-90.27 -24.031,24.071 -51.27,51.372 -51.27,51.372" /><path
             id="path76"
             style="fill:#fff08a;fill-opacity:1;fill-rule:nonzero;stroke:none"
             d="m 173.984,929.199 -2.175,5.176 -1.008,4.531 v 0.039 l 0.91,15.75 c 1.277,4.602 377.754,374.955 595.074,559.375 0,0 291.145,234.68 296.765,239.45 0,1.25 -8.75,93.89 -8.75,99.64 -4.86,-4.27 -413.07,-368.8 -413.07,-368.8 -160.832,-141.3 -468.46,-479.18 -501.691,-512.243 -2.078,-1.941 -3.254,-4.187 -3.254,-6.179 0,-2.043 0.969,-4.043 2.719,-5.657 0.016,-0.027 25.098,-23.965 38.047,-36.336 -1.574,2.371 -3.567,5.254 -3.567,5.254 z m 6.758,-9.933 v 0.019 -0.019" /><path
             id="path78"
             style="fill:#fff08f;fill-opacity:1;fill-rule:nonzero;stroke:none"
             d="m 170.43,933.828 -1.094,4.785 v 0.028 l 0.891,16.156 c 1.257,4.59 377.937,375.653 595.586,560.383 0,0 290.647,234.25 296.257,239.02 0,1.23 -8.74,90 -8.74,95.71 -4.88,-4.3 -410.603,-366.63 -410.603,-366.63 -160.024,-140.6 -468.332,-479.04 -501.614,-512.194 -1.816,-1.691 -2.843,-3.559 -2.843,-5.148 0,-1.622 0.793,-3.254 2.257,-4.59 0,-0.032 21.536,-20.567 30.657,-29.289 z m 2.312,-5.449 v 0.019 -0.019" /><path
             id="path80"
             style="fill:#fff194;fill-opacity:1;fill-rule:nonzero;stroke:none"
             d="m 167.891,938.34 c 0,0.926 0.847,16.531 0.847,16.531 1.223,4.609 378.098,376.399 596.106,561.429 0,0 290.116,233.81 295.736,238.58 0,1.21 -8.75,86.12 -8.75,91.77 -4.87,-4.3 -408.131,-364.47 -408.131,-364.47 C 483.809,1341.71 175.461,1003.21 142.148,970.059 l -2.382,-4.121 1.765,-3.528 c 0.051,-0.039 22.571,-21.57 26.684,-25.469 l -0.324,1.399" /><path
             id="path82"
             style="fill:#fff199;fill-opacity:1;fill-rule:nonzero;stroke:none"
             d="m 167.297,954.949 c 1.187,4.621 378.199,377.091 596.598,562.451 2.835,2.33 285.315,229.87 295.205,238.14 -0.04,1.26 -0.65,20.44 -0.65,20.44 0,0 -7.78,61.73 -7.95,67.5 -4.61,-4.09 -405.812,-362.39 -405.812,-362.39 C 520.227,1371.75 304.727,1141.27 201.184,1030.5 l -58.008,-61.477 0.015,0.02 c 0,-0.078 -1.238,-2.246 -1.785,-3.152 l 1.414,-2.817 c 0.051,0.063 17.192,-16.297 23.723,-22.539 0.176,3.313 0.754,14.414 0.754,14.414" /><path
             id="path84"
             style="fill:#fff29e;fill-opacity:1;fill-rule:nonzero;stroke:none"
             d="m 165.828,955.02 0.031,0.293 c 1.133,4.343 378.329,377.537 597.102,563.207 0.019,0 288.729,232.81 294.669,237.69 -0.03,1.33 -0.64,19.72 -0.64,19.72 0,0 -7.44,51.22 -7.86,64.4 -4.6,-4.11 -403.485,-360.31 -403.485,-360.31 C 521.133,1370.61 305.754,1140.21 202.246,1029.5 l -58.016,-61.473 0.34,1.453 c 0,0 -1.093,-2.476 -1.55,-3.535 l 1.113,-2.215 -0.539,0.086 c 2.019,-1.343 7.219,-6.238 21.672,-20.039 0.203,3.86 0.562,11.243 0.562,11.243" /><path
             id="path86"
             style="fill:#fff2a3;fill-opacity:1;fill-rule:nonzero;stroke:none"
             d="m 164.375,955.098 0.078,0.578 c 1.133,4.363 378.66,378.174 597.567,563.954 0.023,0.02 288.11,232.3 294.14,237.26 -0.05,1.31 -0.64,18.99 -0.64,18.99 0,0 -7.36,48.54 -7.76,61.29 -4.6,-4.12 -401.119,-358.24 -401.119,-358.24 -124.407,-109.27 -339.649,-339.5 -443.067,-450.14 0.11,0.13 0,0.01 -58.281,-61.77 l -0.398,-0.45 -0.278,-0.586 0.821,-1.597 -1.012,0.633 c 1.969,-1.329 6.785,-5.848 19.539,-18.008 0.168,3.269 0.41,8.086 0.41,8.086" /><path
             id="path88"
             style="fill:#fff3a8;fill-opacity:1;fill-rule:nonzero;stroke:none"
             d="m 162.93,955.164 0.117,0.871 c 1.133,4.387 378.957,378.765 598.027,564.715 -0.027,-0.02 0.078,0.06 159.989,131.65 0,0 132.517,104.26 133.597,105.16 -0.04,1.31 -7.86,64.14 -8.23,76.45 -4.61,-4.11 -398.84,-356.16 -398.84,-356.16 C 523.262,1368.6 308.035,1138.42 204.629,1027.79 l -0.02,0.36 c -0.847,-1.26 -3.171,-3.74 -8.515,-9.4 l -49.727,-52.734 0.574,-1.125 c 2.344,-1.961 6.868,-6.192 15.747,-14.637 0.105,2.344 0.242,4.91 0.242,4.91" /><path
             id="path90"
             style="fill:#fff4ac;fill-opacity:1;fill-rule:nonzero;stroke:none"
             d="m 161.477,955.234 0.156,1.161 c 1.148,4.425 379.336,379.445 598.504,565.465 l -0.059,-0.41 c 0.535,0.72 1.668,1.73 4.695,4.24 0,0 287.327,231.63 288.417,232.54 -0.05,1.34 -7.96,66.93 -8.12,72.62 -4.6,-4.11 -396.484,-354.08 -396.484,-354.08 C 524.199,1367.5 309.082,1137.39 205.691,1026.8 l -7.949,-8.43 c -0.535,-0.58 -44.656,-47.362 -49.414,-52.393 1.485,-1.661 9.067,-8.809 13.039,-12.52 l 0.11,1.777" /><path
             id="path92"
             style="fill:#fff4b1;fill-opacity:1;fill-rule:nonzero;stroke:none"
             d="M 649.543,1475.68 C 525.156,1366.41 310.105,1136.36 206.746,1025.81 l -7.918,-8.42 c -0.012,-0.03 -43.359,-45.964 -48.445,-51.355 1.336,-1.301 7.066,-6.797 9.812,-9.426 1.172,4.59 379.676,380.211 598.993,566.371 l 4.667,3.84 c 0.024,0 281.225,226.74 287.805,232.04 -0.16,1.28 -1.96,17.02 -1.96,17.02 -2.13,18.29 -5.13,43.95 -5.83,51.96 -4.25,-3.81 -394.327,-352.16 -394.327,-352.16" /><path
             id="path94"
             style="fill:#fff5b5;fill-opacity:1;fill-rule:nonzero;stroke:none"
             d="M 650.508,1474.58 C 526.23,1365.41 311.262,1135.45 207.938,1024.95 c -0.235,-0.25 -50.333,-53.387 -55.504,-58.864 1.472,-1.406 6.277,-6.027 7.722,-7.434 24.629,27.434 385.821,385.268 598.086,565.428 l 4.649,3.82 c 0.07,0.07 278.559,224.62 287.219,231.59 -0.16,1.45 -1.87,16.21 -1.87,16.21 0,0 -4.3,38.52 -5.5,49.18 -4.16,-3.72 -392.232,-350.3 -392.232,-350.3" /><path
             id="path96"
             style="fill:#fff5b9;fill-opacity:1;fill-rule:nonzero;stroke:none"
             d="M 651.477,1473.48 C 527.336,1364.43 312.461,1134.62 209.219,1024.19 c -0.227,-0.24 -52.942,-56.163 -54.727,-58.069 1.106,-1.055 4.492,-4.312 5.613,-5.391 30.715,33.352 388.165,387.04 597.208,564.47 l 4.621,3.8 c 0.007,0.02 285.426,230.14 286.626,231.12 -0.16,1.43 -1.76,15.42 -1.76,15.42 0,0.01 -4.06,36.17 -5.2,46.38 -4.15,-3.72 -390.123,-348.44 -390.123,-348.44" /><path
             id="path98"
             style="fill:#fff6be;fill-opacity:1;fill-rule:nonzero;stroke:none"
             d="m 652.434,1472.39 c -124.082,-109 -338.899,-338.76 -442.141,-449.18 0,-0.02 -52.023,-55.175 -53.75,-57.026 0.996,-0.981 2.949,-2.844 3.516,-3.391 35.402,37.867 387.05,385.907 596.296,563.517 l 4.661,3.82 c -0.235,-0.19 -0.188,-0.15 159.882,128.92 0,0 124.902,100.72 126.132,101.71 -0.15,1.43 -1.68,14.6 -1.68,14.6 0,0.02 -4.38,39.32 -4.87,43.6 -4.18,-3.72 -388.046,-346.57 -388.046,-346.57" /><path
             id="path100"
             style="fill:#fff6c2;fill-opacity:1;fill-rule:nonzero;stroke:none"
             d="M 653.391,1471.31 C 529.297,1362.27 314.563,1132.59 211.34,1022.22 c 0.152,0.13 0.144,0.12 -27.5,-29.193 0,0 -23.442,-24.851 -25.266,-26.797 l 1.438,-1.367 c 39.297,41.627 387.625,386.197 595.41,562.557 l 4.668,3.84 -0.11,-0.98 c 0.79,1.48 5.684,5.45 27.54,23.09 0,0 256.74,207.02 257.98,208.02 -0.17,1.41 -1.58,13.79 -1.58,13.79 0,0.13 -4.13,36.7 -4.58,40.82 -4.15,-3.71 -385.949,-344.69 -385.949,-344.69" /><path
             id="path102"
             style="fill:#fff7c6;fill-opacity:1;fill-rule:nonzero;stroke:none"
             d="M 654.348,1470.2 C 530.273,1361.18 315.574,1131.57 212.41,1021.22 v 0.5 c -0.476,-0.91 -1.726,-2.36 -5.437,-6.29 0,0 -9.453,-10.02 -15.868,-16.828 99.942,100.308 383.797,377.498 563.375,529.938 l 4.692,3.84 -0.461,-1.4 c 0.906,1.7 4.348,4.55 27.91,23.52 0,0 256.099,206.52 257.329,207.52 -0.16,1.42 -1.49,13.02 -1.49,13.02 0,0.02 -3.88,34.81 -4.24,38.01 -4.17,-3.73 -383.872,-342.85 -383.872,-342.85" /><path
             id="path104"
             style="fill:#ffe500;fill-opacity:1;fill-rule:nonzero;stroke:none"
             d="m 1243.07,1703.03 50.15,-60.25 51.86,-58.46 34.74,-36.03 c 184.53,-184.66 561.27,-562.794 565.01,-566.474 1.12,-1.062 1.64,-2.058 1.64,-3.039 v -0.066 c -0.02,-1.27 -0.8,-2.227 -1.44,-2.813 C 1928.97,960.461 1561.24,606.359 1360.71,436.18 L 1052.24,186.77 1060.99,-3.48828 1530.82,415.379 c 172.13,151.332 500.17,510.754 503.28,513.879 8.12,7.375 12.87,18.23 12.87,29.57 0,11.504 -4.78,22.235 -13.49,30.227 l -1.85,1.758 c -56.6,53.827 -346.25,329.557 -492.64,471.007 -49.89,48.24 -67.94,62.79 -86.14,77.61 l -80.36,65.57 -129.42,98.03" /><path
             id="path106"
             style="fill:#ffe500;fill-opacity:1;fill-rule:nonzero;stroke:none"
             d="m 1064.86,52.7813 c -1.03,0.8007 -2.13,1.6484 -3.31,2.5585 -2.59,53.6292 -6.35,129.2192 -6.35,130.0822 5.63,4.769 307.46,248.547 307.46,248.547 195.81,166.16 545.17,502.047 584.67,540.191 0,0 1.96,4.278 1.96,5.195 v 0.086 l -2.36,4.446 -78.88,79.103 -486.1,487.31 -34.64,35.96 c -46.98,52.97 -51.38,57.91 -52.79,58.95 l 1,-0.57 c 0,0 -23.15,27.81 -33.77,40.56 14.6,-11.07 108.7,-82.32 108.88,-82.47 l 81.42,-66.43 c 17.72,-14.44 36.03,-29.36 84.88,-76.58 128.19,-123.85 363.8,-348.38 475.69,-454.88 l -0.15,-3.92 c -110.93,105.56 -348.13,331.59 -477.62,456.71 -48.75,47.13 -67,61.99 -84.65,76.37 l -81.45,66.46 c -0.01,0 -63.16,47.85 -88.32,66.92 7.56,-9.1 17.36,-20.9 17.36,-20.9 l -1.5,1.08 c 1.66,-1.23 4.42,-4.33 50.31,-56.04 l 2.94,-3.32 34.55,-35.89 486.07,-487.27 78.87,-79.102 2.89,-5.157 0.01,-0.129 c 0,-1.211 -1.85,-7.586 -1.85,-7.586 -3.28,-3.457 -379.44,-366.457 -585.47,-541.316 0,0 -300.82,-242.91 -306.46,-247.699 0,-0.871 4.13,-79.832 6.71,-131.2697 m 813.12,717.9377 c 57.41,60.832 105.11,112.34 131.04,140.301 l -0.09,-2.461 c -4.46,-4.911 -9.28,-10.2 -14.51,-15.899 -3.77,-4.101 -7.75,-8.422 -11.96,-12.961 -25.45,-27.461 -59.17,-63 -104.48,-108.98" /><path
             id="path108"
             style="fill:#fee500;fill-opacity:1;fill-rule:nonzero;stroke:none"
             d="m 1068.2,50.2109 c -0.98,0.7579 -2.1,1.6172 -3.34,2.5704 -2.58,51.4377 -6.71,130.3987 -6.71,131.2697 5.64,4.789 306.46,247.699 306.46,247.699 206.03,174.859 582.19,537.859 585.47,541.316 0,0 1.85,6.375 1.85,7.586 l -0.01,0.129 -2.89,5.157 -78.87,79.102 -486.07,487.27 -34.55,35.89 -2.94,3.32 c -45.89,51.71 -48.65,54.81 -50.31,56.04 l 1.5,-1.08 c 0,0 -9.8,11.8 -17.36,20.9 25.16,-19.07 88.31,-66.92 88.32,-66.92 L 1450.2,1534 c 17.65,-14.38 35.9,-29.24 84.65,-76.37 129.49,-125.12 366.69,-351.15 477.62,-456.71 l -0.15,-3.936 c -109.28,104.006 -346.97,330.476 -479.56,458.556 -48.61,47.03 -66.8,61.85 -84.39,76.18 l -81.48,66.46 c 0,0 -54.04,40.93 -67.8,51.36 l 1,-1.2 0.11,-0.41 51.57,-57.79 34.48,-35.82 486,-487.22 78.88,-79.104 3.37,-5.789 0.02,-0.227 c 0,-1.636 -1.59,-9.667 -1.59,-9.667 -1.8,-2.301 -373.96,-362.481 -586.4,-542.774 0,0 -299.78,-242.051 -305.41,-246.82 0,-0.938 4.55,-83.9573 7.08,-132.5081 m 715.81,626.7771 c 97.07,101.051 185.93,197.242 225.2,239.008 l -0.19,-4.976 C 1983.09,883.059 1935.39,831.551 1877.98,770.719 1851,743.34 1819.89,712.25 1784.01,676.988" /><path
             id="path110"
             style="fill:#fde500;fill-opacity:1;fill-rule:nonzero;stroke:none"
             d="m 1071.58,47.6094 c -0.78,0.6015 -1.93,1.4804 -3.38,2.6015 -2.53,48.5508 -7.08,131.5701 -7.08,132.5081 5.63,4.769 305.41,246.82 305.41,246.82 212.44,180.293 584.6,540.473 586.4,542.774 0,0 1.59,8.031 1.59,9.667 l -0.02,0.227 -3.37,5.789 -78.88,79.104 -486,487.22 -34.48,35.82 -51.57,57.79 -0.11,0.41 -1,1.2 c 13.76,-10.43 67.8,-51.36 67.8,-51.36 l 81.48,-66.46 c 17.59,-14.33 35.78,-29.15 84.39,-76.18 132.59,-128.08 370.28,-354.55 479.56,-458.556 l -0.15,-3.91 c -107.79,102.566 -346.22,329.696 -481.5,460.376 -48.5,46.93 -66.65,61.69 -84.17,75.98 l 1.62,-0.04 v 0 c -1.69,0.1 -9.89,6.79 -75.03,59.97 l -8.05,6.54 c -0.24,0.17 -36.63,27.75 -44.63,33.8 11.9,-13.34 33.55,-37.58 33.56,-37.6 l 34.41,-35.76 485.97,-487.18 78.89,-79.121 3.85,-6.355 0.02,-0.344 c 0,-2.129 -1.27,-11.531 -1.27,-11.531 -0.94,-1.653 -370.46,-360.411 -587.38,-544.5 0,0 -298.74,-241.168 -304.38,-245.93 0,-0.988 5.08,-89.2071 7.5,-133.7696 m 171.35,126.7186 c 62.31,55.582 130.62,116.524 184.16,164.274 C 1350.38,268.23 1290.18,214.859 1242.93,174.328 M 1709.4,604.34 c 124.7,127.082 252.74,265.98 299.98,316.113 l -0.17,-4.457 c -39.27,-41.766 -128.13,-137.957 -225.2,-239.008 -22.86,-22.476 -47.67,-46.636 -74.61,-72.648" /><path
             id="path112"
             style="fill:#fce500;fill-opacity:1;fill-rule:nonzero;stroke:none"
             d="m 1072.75,46.7109 c 0,0 -0.41,0.3086 -1.17,0.8985 -2.42,44.5625 -7.5,132.7816 -7.5,133.7696 5.64,4.762 304.38,245.93 304.38,245.93 216.92,184.089 586.44,542.847 587.38,544.5 0,0 1.27,9.402 1.27,11.531 l -0.02,0.344 -3.85,6.355 -78.89,79.121 -485.97,487.18 -34.41,35.76 c -0.01,0.02 -21.66,24.26 -33.56,37.6 8,-6.05 44.39,-33.63 44.63,-33.8 l 8.05,-6.54 c 65.14,-53.18 73.34,-59.87 75.03,-59.97 l -1.62,0.04 c 17.52,-14.29 35.67,-29.05 84.17,-75.98 135.28,-130.68 373.71,-357.81 481.5,-460.376 l -0.15,-3.918 C 1905,1091 1664.22,1320.36 1528.58,1451.35 c -48.37,46.83 -66.44,61.54 -83.9,75.8 -4.63,3.75 -81.49,66.48 -81.49,66.48 -0.01,0 -11.21,8.48 -20.47,15.49 6.64,-7.45 13.6,-15.25 13.6,-15.25 l -0.2,0.23 34.42,-35.75 485.91,-487.14 78.89,-79.108 4.29,-6.926 0.25,-1.094 -1.11,-12.637 c -0.51,-1.257 -365.88,-357.504 -588.36,-546.355 0,0 -297.74,-240.301 -303.37,-245.059 0,-1.031 5.63,-93.4216 7.86,-133.2029 -0.01,0 -0.02,0 -0.03,0 l -2.12,-0.1172 m 100.66,69.5001 c 131.04,116.898 347.51,310.051 347.51,310.051 5.57,4.898 11.3,10.019 17.19,15.347 -40.37,-37.828 -77.31,-72.078 -111.02,-103.007 -53.54,-47.75 -121.85,-108.692 -184.16,-164.274 -27.27,-23.398 -50.23,-42.508 -69.52,-58.117 m 436.75,393.269 c 149.95,145.739 342.29,355 399.39,415.469 l -0.17,-4.496 C 1962.14,870.32 1834.1,731.422 1709.4,604.34 c -30.3,-29.238 -63.3,-60.809 -99.24,-94.86" /><path
             id="path114"
             style="fill:#fce500;fill-opacity:1;fill-rule:nonzero;stroke:none"
             d="m 1074.9,46.8281 c -2.23,39.7813 -7.86,132.1719 -7.86,133.2029 5.63,4.758 303.37,245.059 303.37,245.059 222.48,188.851 587.85,545.098 588.36,546.355 l 1.11,12.637 -0.25,1.094 -4.29,6.926 -78.89,79.108 -485.91,487.14 -34.42,35.75 0.2,-0.23 c 0,0 -6.96,7.8 -13.6,15.25 9.26,-7.01 20.46,-15.49 20.47,-15.49 0,0 76.86,-62.73 81.49,-66.48 17.46,-14.26 35.53,-28.97 83.9,-75.8 C 1664.22,1320.36 1905,1091 2012.02,989.156 l -0.15,-3.902 C 1905.96,1086 1663.46,1317 1526.52,1449.25 c -48.18,46.64 -66.19,61.32 -83.62,75.55 -0.07,0.04 -63.29,51.63 -74.46,60.74 10.1,-10.48 24.24,-25.17 24.24,-25.17 l 485.88,-487.1 78.87,-79.11 4.73,-7.441 0.66,-2.598 -1.08,-12.922 c -1.81,-4.722 -377.3,-368.301 -589.39,-548.32 0,0 -296.72,-239.43 -302.34,-244.219 0,-1.058 6.11,-95.9686 8.11,-130.66 -1.67,-0.7305 -2.67,-1.0391 -3.22,-1.1719 m 61.12,39.9414 c 119.22,106.3595 382.93,341.6795 382.93,341.6795 151.66,133.281 425.18,431.692 490.78,500.946 l -0.18,-4.446 c -57.1,-60.469 -249.44,-269.73 -399.39,-415.469 -12.57,-11.902 -25.48,-24.101 -38.77,-36.621 -11.35,-10.687 -22.43,-21.089 -33.28,-31.25 -5.89,-5.328 -11.62,-10.449 -17.19,-15.347 0,0 -216.47,-193.153 -347.51,-310.051 -14.42,-11.66 -26.78,-21.3594 -37.39,-29.4415" /><path
             id="path116"
             style="fill:#fbe500;fill-opacity:1;fill-rule:nonzero;stroke:none"
             d="m 1078.12,48 c -2,34.6914 -8.11,129.602 -8.11,130.66 5.62,4.789 302.34,244.219 302.34,244.219 212.09,180.019 587.58,543.598 589.39,548.32 l 1.08,12.922 -0.66,2.598 -4.73,7.441 -78.87,79.11 -485.88,487.1 c 0,0 -14.14,14.69 -24.24,25.17 11.17,-9.11 74.39,-60.7 74.46,-60.74 17.43,-14.23 35.44,-28.91 83.62,-75.55 C 1663.46,1317 1905.96,1086 2011.87,985.254 l -0.15,-3.934 c -104.38,99.31 -348.07,331.4 -487.29,465.84 -48.15,46.63 -66.05,61.22 -83.35,75.33 0,0 -18.95,15.44 -34.72,28.32 41.77,-41.86 200.5,-200.99 474.3,-475.5 l 78.88,-79.099 5.14,-7.949 0.71,-2.293 0.37,-1.535 -1.06,-13.465 c -1.67,-4.66 -377.12,-369.278 -590.41,-550.321 0,0 -295.69,-238.546 -301.34,-243.316 0,-1.133 6.74,-99.4922 8.4,-127.7929 -1.28,-0.6602 -2.35,-1.1602 -3.23,-1.5391 m 32.98,20.4219 c 97.82,87.2691 405.85,362.1991 405.85,362.1991 152.63,134.129 431.56,438.688 492.95,503.231 l -0.17,-4.457 c -65.6,-69.254 -339.12,-367.665 -490.78,-500.946 0,0 -263.71,-235.32 -382.93,-341.6795 -9.71,-7.3906 -17.95,-13.4297 -24.92,-18.3476" /><path
             id="path118"
             style="fill:#fae500;fill-opacity:1;fill-rule:nonzero;stroke:none"
             d="m 1081.35,49.5391 c -1.66,28.3007 -8.4,126.6599 -8.4,127.7929 5.65,4.77 301.34,243.316 301.34,243.316 213.29,181.043 588.74,545.661 590.41,550.321 l 1.06,13.465 -0.37,1.535 -0.71,2.293 -5.14,7.949 -78.88,79.099 c -273.8,274.51 -432.53,433.64 -474.3,475.5 15.77,-12.88 34.72,-28.32 34.72,-28.32 17.3,-14.11 35.2,-28.7 83.35,-75.33 139.22,-134.44 382.91,-366.53 487.29,-465.84 l -0.15,-3.91 c -103.69,98.65 -350.22,333.46 -489.23,467.65 -38.99,37.76 -57.99,54.39 -72.96,66.8 38.09,-38.19 512.26,-513.587 512.26,-513.587 l 0.14,-0.136 5.4,-8.313 1.04,-3.027 c 0.28,-1.094 0.46,-2.051 0.46,-2.051 l -1.02,-14.004 c -1.58,-4.629 -377.17,-370.441 -591.42,-552.293 0,0 -294.7,-237.719 -300.32,-242.48 0,-1.188 7.65,-106.2971 8.63,-124.719 -1.19,-0.6719 -2.25,-1.2305 -3.2,-1.7109 m 12.03,6.9726 c 61.16,54.5273 421.6,376.2693 421.6,376.2693 153.82,135.188 438.59,446.438 495.09,505.516 l -0.17,-4.445 c -61.39,-64.543 -340.32,-369.102 -492.95,-503.231 0,0 -308.03,-274.93 -405.85,-362.1991 -7.17,-5.0625 -13,-8.9414 -17.72,-11.9102" /><path
             id="path120"
             style="fill:#fae500;fill-opacity:1;fill-rule:nonzero;stroke:none"
             d="m 1084.55,51.25 c -0.98,18.4219 -8.63,123.531 -8.63,124.719 5.62,4.761 300.32,242.48 300.32,242.48 214.25,181.852 589.84,547.664 591.42,552.293 l 1.02,14.004 c 0,0 -0.18,0.957 -0.46,2.051 l -1.04,3.027 -5.4,8.313 -0.14,0.136 c 0,0 -474.17,475.397 -512.26,513.587 14.97,-12.41 33.97,-29.04 72.96,-66.8 139.01,-134.19 385.54,-369 489.23,-467.65 l -0.15,-3.918 c -72.24,68.718 -291.06,277.058 -440.81,420.998 117.24,-117.56 393.13,-394.17 393.13,-394.17 l 0.52,-0.601 5.4,-8.324 1.37,-3.653 0.59,-2.754 -1,-14.441 c -1.48,-4.617 -377.23,-371.625 -592.45,-554.309 0,0 -293.65,-236.859 -299.29,-241.617 0,-1.269 8.75,-113.4022 8.75,-119.3593 4.88,4.2969 425.38,379.6873 425.38,379.6873 155.95,137.063 446.6,455.231 497.23,507.77 l -0.17,-4.422 c -56.5,-59.078 -341.27,-370.328 -495.09,-505.516 0,0 -360.44,-321.742 -421.6,-376.2693 -3.53,-2.2226 -6.44,-3.9414 -8.83,-5.2617" /><path
             id="path122"
             style="fill:#fae400;fill-opacity:1;fill-rule:nonzero;stroke:none"
             d="m 1087.63,55.2617 c 0,5.9571 -8.75,118.0903 -8.75,119.3593 5.64,4.758 299.29,241.617 299.29,241.617 215.22,182.684 590.97,549.692 592.45,554.309 l 1,14.441 -0.59,2.754 -1.37,3.653 -5.4,8.324 -0.52,0.601 c 0,0 -275.89,276.61 -393.13,394.17 149.75,-143.94 368.57,-352.28 440.81,-420.998 l -0.15,-3.883 c -19.9,18.996 -183.05,174.771 -267.6,255.531 89.11,-89.36 222.19,-222.76 222.19,-222.76 l 0.88,-1.1 5.39,-8.284 1.67,-4.195 0.76,-3.535 -0.98,-14.922 c -1.37,-4.574 -377.32,-372.856 -593.47,-556.332 0,0 -292.65,-235.973 -298.26,-240.742 0,-1.27 8.74,-105.5786 8.74,-111.4809 4.89,4.2929 420.44,375.3519 420.44,375.3519 158.4,139.199 455.97,465.507 499.38,509.992 l -0.17,-4.414 c -50.63,-52.539 -341.28,-370.707 -497.23,-507.77 0,0 -420.5,-375.3904 -425.38,-379.6873" /><path
             id="path124"
             style="fill:#f9e200;fill-opacity:1;fill-rule:nonzero;stroke:none"
             d="m 1090.59,61.7891 c 0,5.9023 -8.74,110.2109 -8.74,111.4809 5.61,4.769 298.26,240.742 298.26,240.742 216.15,183.476 592.1,551.758 593.47,556.332 l 0.98,14.922 -0.76,3.535 -1.67,4.195 -5.39,8.284 -0.88,1.1 c 0,0 -133.08,133.4 -222.19,222.76 84.55,-80.76 247.7,-236.535 267.6,-255.531 l -0.15,-3.925 c -3.21,3.05 -68.06,64.976 -94.43,90.156 24.01,-24.07 51.25,-51.38 51.25,-51.38 l 1.27,-1.57 -0.45,0.22 c 0.84,-0.8 2.31,-3.05 5.87,-8.547 l 1.92,-4.719 0.94,-4.309 -0.95,-15.379 c -1.32,-4.59 -377.59,-374.246 -594.49,-558.367 0,0 -291.62,-235.098 -297.25,-239.867 0,-1.231 8.74,-97.7736 8.74,-103.5939 4.89,4.2813 415.5,370.9809 415.5,370.9809 160.56,141.101 467.48,478.156 501.53,512.16 l -0.16,-4.336 C 1967,902.648 1669.43,576.34 1511.03,437.141 c 0,0 -415.55,-371.059 -420.44,-375.3519" /><path
             id="path126"
             style="fill:#f9e000;fill-opacity:1;fill-rule:nonzero;stroke:none"
             d="m 1093.54,68.3281 c 0,5.8203 -8.74,102.3629 -8.74,103.5939 5.63,4.769 297.25,239.867 297.25,239.867 216.9,184.121 593.17,553.777 594.49,558.367 l 0.95,15.379 -0.94,4.309 -1.92,4.719 c -3.56,5.497 -5.03,7.747 -5.87,8.547 l 0.45,-0.22 -1.27,1.57 c 0,0 -27.24,27.31 -51.25,51.38 26.37,-25.18 91.22,-87.106 94.43,-90.156 l -0.18,-4.602 c -0.38,0.832 -0.96,1.629 -1.73,2.344 -0.01,0.019 -21.54,20.566 -30.68,29.277 l 0.77,-1.758 1.09,-4.785 v -0.027 l -0.89,-16.153 c -1.25,-4.597 -377.89,-375.652 -595.51,-560.402 0,0 -290.61,-234.238 -296.23,-239 0,-1.226 8.74,-89.9999 8.74,-95.7264 4.9,4.2968 410.57,366.6364 410.57,366.6364 159.98,140.59 468.25,479.039 501.54,512.203 0.94,0.872 1.67,1.789 2.15,2.696 l -0.19,-4.918 c -34.05,-34.004 -340.97,-371.059 -501.53,-512.16 0,0 -410.61,-366.6996 -415.5,-370.9809 m 883.43,928.0669 v -0.016 0.016" /><path
             id="path128"
             style="fill:#f8de00;fill-opacity:1;fill-rule:nonzero;stroke:none"
             d="m 1096.5,74.8516 c 0,5.7265 -8.74,94.5004 -8.74,95.7264 5.62,4.762 296.23,239 296.23,239 217.62,184.75 594.26,555.805 595.51,560.402 l 0.89,16.153 v 0.027 l -1.09,4.785 -0.77,1.758 c 9.14,-8.711 30.67,-29.258 30.68,-29.277 0.77,-0.715 1.35,-1.512 1.73,-2.344 l -0.18,-4.695 c -0.48,-0.907 -1.21,-1.824 -2.15,-2.696 -33.29,-33.164 -341.56,-371.613 -501.54,-512.203 0,0 -405.67,-362.3396 -410.57,-366.6364 m 886.68,909.3864 c -0.18,-3.312 -0.74,-14.425 -0.74,-14.425 -1.2,-4.61 -378.16,-377.075 -596.53,-562.461 -2.85,-2.321 -285.29,-229.84 -295.19,-238.141 0.04,-1.231 2,-20.41 2,-20.41 0,0 6.45,-61.7424 6.63,-67.5197 4.58,4.0781 405.76,362.3787 405.76,362.3787 124.42,109.36 339.89,339.852 443.43,450.61 l 58.01,61.472 -0.03,-0.012 c 0,0.083 1.25,2.239 1.79,3.157 l -1.42,2.812 v 0 c -0.08,0 -17.16,16.297 -23.71,22.539 m -6.21,12.141 v 0.016 -0.016" /><path
             id="path130"
             style="fill:#f8dd00;fill-opacity:1;fill-rule:nonzero;stroke:none"
             d="m 1099.35,81.2813 c -0.18,5.7773 -6.63,67.5197 -6.63,67.5197 0,0 -1.96,19.179 -2,20.41 9.9,8.301 292.34,235.82 295.19,238.141 218.37,185.386 595.33,557.851 596.53,562.461 0,0 0.56,11.113 0.74,14.425 6.55,-6.242 23.63,-22.539 23.71,-22.539 v 0 l 1.42,-2.812 c -0.54,-0.918 -1.79,-3.074 -1.79,-3.157 l 0.03,0.012 -58.01,-61.472 C 1845,783.512 1629.53,553.02 1505.11,443.66 c 0,0 -401.18,-358.3006 -405.76,-362.3787 m 886.41,896.4727 c -0.16,-3.27 -0.42,-8.074 -0.42,-8.074 l -0.09,-0.586 c -1.12,-4.36 -378.6,-378.184 -597.46,-563.965 -0.03,-0.02 -288.08,-232.289 -294.1,-237.25 0.03,-1.328 1.99,-20.391 1.99,-20.391 0,0 5.98,-47.148 6.37,-59.8786 4.61,4.1015 401.11,358.2426 401.11,358.2426 124.37,109.257 339.57,339.488 443,450.136 0,-0.008 -0.01,-0.008 -0.01,-0.008 -0.01,0 2.43,2.571 58.27,61.774 l 0.43,0.437 0.25,0.586 -0.8,1.606 1,-0.637 v 0 c -1.99,1.34 -6.78,5.852 -19.54,18.008" /><path
             id="path132"
             style="fill:#f7db00;fill-opacity:1;fill-rule:nonzero;stroke:none"
             d="m 1102.05,87.6094 c -0.39,12.7306 -6.37,59.8786 -6.37,59.8786 0,0 -1.96,19.063 -1.99,20.391 6.02,4.961 294.07,237.23 294.1,237.25 218.86,185.781 596.34,559.605 597.46,563.965 l 0.09,0.586 c 0,0 0.26,4.804 0.42,8.074 12.76,-12.156 17.55,-16.668 19.54,-18.008 l -1,0.637 0.8,-1.606 -0.25,-0.586 -0.43,-0.437 c -55.84,-59.203 -58.28,-61.774 -58.27,-61.774 0,0 0.01,0 0.01,0.008 -103.43,-110.648 -318.63,-340.879 -443,-450.136 0,0 -396.5,-354.1411 -401.11,-358.2426 m 287.69,315.7186 c -0.55,-0.738 -1.67,-1.758 -4.73,-4.258 0,0 -287.27,-231.621 -288.38,-232.539 0.05,-1.32 7.96,-66.9099 8.16,-72.6091 4.59,4.0976 396.42,354.0781 396.42,354.0781 124.35,109.281 339.43,339.371 442.82,449.969 l 7.93,8.429 c 0.57,0.582 44.68,47.364 49.44,52.403 -1.49,1.648 -9.08,8.804 -13.05,12.508 l -0.09,-1.778 -0.16,-1.152 c -1.15,-4.426 -379.29,-379.457 -598.42,-565.481 l 0.06,0.43" /><path
             id="path134"
             style="fill:#f7d900;fill-opacity:1;fill-rule:nonzero;stroke:none"
             d="m 1104.79,93.9219 c -0.2,5.6992 -8.11,71.2891 -8.16,72.6091 1.11,0.918 288.38,232.539 288.38,232.539 3.06,2.5 4.18,3.52 4.73,4.258 l -0.06,-0.43 c 219.13,186.024 597.27,561.055 598.42,565.481 l 0.16,1.152 0.09,1.778 c 3.97,-3.704 11.56,-10.86 13.05,-12.508 -4.76,-5.039 -48.87,-51.821 -49.44,-52.403 l -7.93,-8.429 C 1840.64,787.371 1625.56,557.281 1501.21,448 c 0,0 -391.83,-349.9805 -396.42,-354.0781" /></g></g><path
         id="path136"
         style="fill:#ffe500;fill-opacity:1;fill-rule:nonzero;stroke:none"
         d="m 215.723,1106.05 -89.969,90.25 92.535,92.26 89.981,-90.27 -92.547,-92.24" /><path
         id="path138"
         style="fill:#ffe500;fill-opacity:1;fill-rule:nonzero;stroke:none"
         d="m 1864.34,1175.79 h 26.22 v 101.23 h -26.22 v -101.23" /><path
         id="path140"
         style="fill:#000000;fill-opacity:1;fill-rule:evenodd;stroke:none"
         d="M 1197.57,1301.01 V 711.691 H 1024.1 l -0.83,482.139 75.02,18.7 -21.85,87.6 121.13,0.88" /><path
         id="path142"
         style="fill:#000000;fill-opacity:1;fill-rule:evenodd;stroke:none"
         d="m 494.68,1173.34 c 72.031,3 177.254,7.67 243.218,0.16 84.309,-10.02 194.446,-32.34 203.301,-150.25 4.192,-55.77 -15.379,-103.594 -93.504,-167.25 0,0 79.961,-86.691 152.695,-169.922 0,0 -91.269,-85.84 -140.71,-126.68 L 680.73,856.422 c 39.536,31.156 87.637,75.695 87.637,129.32 0,50.718 -47.879,74.678 -65.105,74.678 H 666.348 V 564.891 H 494.68 v 608.449" /><path
         id="path144"
         style="fill:#000000;fill-opacity:1;fill-rule:evenodd;stroke:none"
         d="m 1400.84,567.102 v 466.158 h -167.71 v 149.73 h 512.24 V 1033.26 H 1577.66 V 567.102 h -176.82" /><path
         id="path146"
         style="fill:#000000;fill-opacity:1;fill-rule:nonzero;stroke:none"
         d="m 428.516,1327.13 -0.536,-148.37 -181,0.13 -0.261,-137.59 166.844,0.78 V 900.23 l -164.391,0.04 -0.18,-238.95 H 69.9023 v 657.88 c 179.8247,7.75 358.6137,7.93 358.6137,7.93" /><path
         id="path148"
         style="fill:#000000;fill-opacity:1;fill-rule:evenodd;stroke:none"
         d="m 2289.86,951.184 116.06,-4.297 46.2,299.703 -143.72,11.4 -18.54,-306.806" /><path
         id="path150"
         style="fill:#000000;fill-opacity:1;fill-rule:nonzero;stroke:none"
         d="m 2237.83,885.461 90.85,73.562 96.57,-119.293 -90.87,-73.589 -73.58,90.871 -22.97,28.449" /><path
         id="path152"
         style="fill:#000000;fill-opacity:1;fill-rule:evenodd;stroke:none"
         d="M 1157.94,745.52 H 953.879 l -0.899,509.39 71.8,17.9 -22.85,92.61 156.01,0.13 V 745.52" /><path
         id="path154"
         style="fill:#000000;fill-opacity:1;fill-rule:evenodd;stroke:none"
         d="m 1330.66,1067.42 c 0,0 -152.17,-3.98 -150.9,-3.98 l -16.82,-1.77 v 185.68 h 542.74 v -185.68 l -18.36,0.24 -149.36,5.51 V 600.988 h -207.3 v 466.432" /><path
         id="path156"
         style="fill:#000000;fill-opacity:1;fill-rule:evenodd;stroke:none"
         d="m 1694.72,1395.6 6.42,-0.05 c 58.7,-0.2 230.22,2.97 462.45,-10.16 l 26.27,-1.85 -244.01,-454.145 c 49.73,-1.047 114.81,-1.629 201.32,4.05 l 19,1.067 0.07,-184.153 c 0,0 -473.99,0.082 -481.62,0 h -35.7 l 241.41,465.981 c -51.5,-0.27 -114.05,-0.44 -188.55,-3.83 l -7.06,-0.72 v 183.81" /><path
         id="path158"
         style="fill:#000000;fill-opacity:1;fill-rule:nonzero;stroke:none"
         d="m 388.684,1377.8 -0.332,-167.41 -16.68,-0.19 -164.692,0.22 -0.234,-102.06 166.84,0.78 -0.148,-174.46 H 356.211 L 209.16,934.734 208.992,695.5 H 0 v 687.14 l 14.3164,0.63 c 180.1566,7.75 369.5626,7.12 369.5626,7.12" /><path
         id="path160"
         style="fill:#000000;fill-opacity:1;fill-rule:evenodd;stroke:none"
         d="m 684.629,1237.08 c 82.375,-9.78 206.328,-32.65 216.172,-163.62 4.426,-59.06 -16.258,-108.995 -87.434,-170.089 L 966.055,724.27 956.809,714.781 C 915.188,671.898 867.734,631.199 818.203,590.32 L 805.176,579.559 625.969,877.051 V 599.441 H 425.176 v 636.979 l 13.957,0.58 c 72.703,3.03 178.926,7.66 245.496,0.08 z m -58.66,-312.725 c 37.254,30.579 72.898,68.34 72.898,110.505 0,40.88 -39.453,60.11 -50.539,60.11 H 625.969 V 924.355" /><path
         id="path162"
         style="fill:#000000;fill-opacity:1;fill-rule:evenodd;stroke:none"
         d="m 2242.08,1302.36 175.58,-13.93 -50.78,-329.348 -145.22,5.359 20.42,337.919" /><path
         id="path164"
         style="fill:#000000;fill-opacity:1;fill-rule:nonzero;stroke:none"
         d="m 2390.81,862.762 -92.8,114.582 -114.51,-92.742 h -18.38 v -17.75 c -81.65,-3.864 -143.91,-2.282 -189.24,-1.223 l 244.72,455.461 c -231.83,13.11 -400.15,9.92 -522.21,6.53 v -152.64 c 150.78,7.58 215.89,7.16 271.89,7.62 L 1728.76,716.449 h 10.7 c 7.64,0.082 466.58,0 466.58,0 l -0.03,140.242 70.22,-86.703 114.58,92.774" /><path
         id="path166"
         style="fill:#e2001a;fill-opacity:1;fill-rule:evenodd;stroke:none"
         d="M 1142.61,1350.13 V 760.809 H 969.148 l -0.82,482.141 75.002,18.71 -22.48,88.24 121.76,0.23" /><path
         id="path168"
         style="fill:#e2001a;fill-opacity:1;fill-rule:evenodd;stroke:none"
         d="m 439.727,1222.45 c 72.05,3 177.277,7.68 243.222,0.17 84.317,-10.02 194.446,-32.34 203.328,-150.26 4.184,-55.78 -15.398,-103.583 -93.523,-167.239 L 946.367,724.91 C 905.332,682.629 858.391,642.371 808.926,601.551 L 625.801,905.539 c 39.512,31.149 87.617,75.699 87.617,129.321 0,50.71 -47.883,74.68 -65.09,74.68 H 611.395 V 614.012 H 439.727 v 608.438" /><path
         id="path170"
         style="fill:#e2001a;fill-opacity:1;fill-rule:evenodd;stroke:none"
         d="m 1345.9,616.219 v 466.161 l -167.73,-3.79 v 153.53 h 512.28 v -153.53 l -167.73,3.79 V 616.219 H 1345.9" /><path
         id="path172"
         style="fill:#e2001a;fill-opacity:1;fill-rule:evenodd;stroke:none"
         d="m 1706.91,1227.71 v 152.63 c 58.62,-0.2 226.91,2.97 458.75,-10.14 L 1920.95,914.746 c 52.62,-1.223 127.99,-3.195 230.1,3.508 l 0.07,-152.652 c 0,0 -458.92,0.046 -466.58,-0.024 l -10.71,0.024 241.5,466.108 c -56,-0.44 -121.1,-0.04 -208.42,-4" /><path
         id="path174"
         style="fill:#e2001a;fill-opacity:1;fill-rule:nonzero;stroke:none"
         d="m 373.563,1283.19 0.148,-54.86 -181.66,-0.31 -0.274,-137.6 166.844,0.79 -0.066,-141.815 H 194.211 L 194.055,710.461 H 14.9688 v 657.859 l 358.5942,7.15 v -92.28" /><path
         id="path176"
         style="fill:#e2001a;fill-opacity:1;fill-rule:evenodd;stroke:none"
         d="m 2237.83,979.109 116.07,-4.273 46.19,299.684 -143.72,11.41 -18.54,-306.821" /><path
         id="path178"
         style="fill:#e2001a;fill-opacity:1;fill-rule:nonzero;stroke:none"
         d="m 2204.4,882.02 90.85,73.593 73.59,-90.863 -90.84,-73.59 -73.6,90.86" /></g></g></svg>